<svg xmlns="http://www.w3.org/2000/svg" width="1024" height="1024" viewBox="0 0 1024 1024" version="1.1"><path d="M 480.237 167.579 C 423.895 174.403, 373.239 192.618, 327.289 222.575 C 288.574 247.815, 260.558 275.778, 234.904 314.785 C 224.865 330.048, 216.593 345.496, 217.371 347.524 C 217.664 348.289, 219.613 349.990, 221.702 351.304 C 227.807 355.146, 247.987 366, 249.024 366 C 249.546 366, 250.667 364.340, 251.514 362.311 C 254.012 356.334, 265.917 335.255, 272.588 325 C 296.614 288.062, 311.954 275.377, 336.802 271.901 C 342.037 271.168, 346.284 271.209, 351.802 272.045 C 371.266 274.993, 387.012 285.720, 405.237 308.446 C 409.671 313.976, 413.648 318.639, 414.075 318.808 C 414.502 318.978, 416.635 318.207, 418.815 317.094 C 429.841 311.469, 460.548 301, 466.021 301 C 467.109 301, 468.022 300.438, 468.050 299.750 C 468.077 299.063, 468.189 277.125, 468.300 251 L 468.500 203.500 477 202.325 C 481.675 201.679, 487.848 201.117, 490.717 201.075 L 495.934 201 496.217 240.465 C 496.535 284.875, 496.146 282.749, 504.184 283.933 C 506.558 284.282, 511.975 284.328, 516.223 284.034 C 522.409 283.606, 524.384 283.061, 526.153 281.292 L 528.361 279.084 528.145 240.042 L 527.930 201 533.215 201.075 C 536.122 201.117, 542.325 201.679, 547 202.325 L 555.500 203.500 555.760 251.733 L 556.019 299.967 558.260 300.476 C 559.492 300.756, 562.639 301.441, 565.254 301.998 C 578.691 304.860, 602.825 314.144, 616.547 321.729 C 632.306 330.440, 648.506 342.481, 660.308 354.255 L 667.116 361.047 661.058 367.760 C 657.726 371.452, 655 375.088, 655 375.841 C 655 376.594, 656.273 379.075, 657.829 381.355 C 672.846 403.356, 678.215 411.015, 678.931 411.457 C 679.685 411.923, 697.586 403.310, 774.500 365.477 C 799.216 353.319, 807 348.822, 807 346.702 C 807 344.705, 793.752 321.951, 785.921 310.500 C 736.395 238.072, 658.809 188.241, 568.863 171.091 C 542.884 166.138, 504.644 164.622, 480.237 167.579 M 402.500 224.906 C 395.350 227.578, 387.532 230.670, 385.127 231.777 L 380.755 233.789 395.127 248.644 C 411.571 265.638, 416.090 269.946, 417.500 269.972 C 418.050 269.982, 421.200 268.894, 424.500 267.554 C 428.390 265.975, 430.591 264.482, 430.759 263.309 C 430.901 262.314, 428.616 252.275, 425.681 241 C 420.657 221.704, 420.201 220.487, 417.922 220.274 C 416.590 220.150, 409.650 222.234, 402.500 224.906 M 604 220.471 C 604 220.868, 601.525 230.596, 598.500 242.089 C 595.475 253.582, 593 263.602, 593 264.355 C 593 265.167, 597.377 267.449, 603.750 269.959 C 616.022 274.793, 638.120 286.040, 648.357 292.663 C 667.453 305.016, 692.558 327.110, 705.270 342.750 C 708.063 346.188, 710.693 349, 711.114 349 C 712.036 349, 750.130 329.081, 751.373 327.949 C 753.343 326.155, 735.142 304.203, 717.961 287.651 C 690.861 261.543, 655.405 238.694, 621.300 225.358 C 609.707 220.826, 604 219.213, 604 220.471 M 329.500 308.866 C 320.435 312.994, 314.097 324.725, 315.325 335.099 C 317.675 354.942, 340.726 363.742, 356.435 350.793 C 364.433 344.200, 367.430 330.651, 362.942 321.379 C 360.563 316.466, 354.275 310.431, 349.422 308.403 C 344.655 306.411, 334.364 306.650, 329.500 308.866 M 483.777 336.233 C 481.978 339.680, 479.552 344.563, 478.384 347.084 C 476.492 351.167, 475.728 351.815, 471.380 353.019 C 463.617 355.169, 449.136 361.310, 441.160 365.836 C 437.124 368.126, 432.562 370, 431.024 370 C 429.485 370, 424.463 368.899, 419.863 367.554 L 411.500 365.108 393.686 382.804 C 383.888 392.537, 375.444 401.270, 374.922 402.210 C 374.208 403.496, 375.263 406.515, 379.175 414.380 L 384.377 424.841 379.787 434.670 C 375.638 443.557, 371.018 456.430, 369.616 463.013 C 369.191 465.011, 367.432 466.275, 361.040 469.179 L 353 472.831 353 488.259 C 353 496.744, 353.293 509.135, 353.651 515.794 L 354.302 527.902 361.663 531.137 C 368.584 534.179, 369.084 534.614, 370.046 538.436 C 371.993 546.174, 376.208 557.542, 380.674 567.098 L 385.159 576.696 380.079 586.747 C 377.286 592.275, 375 597.411, 375 598.160 C 375 598.908, 383.092 607.603, 392.981 617.481 L 410.963 635.442 421.896 631.714 L 432.830 627.987 442.665 632.581 C 448.074 635.108, 457.675 638.906, 464 641.020 L 475.500 644.865 481.145 655.182 C 484.249 660.857, 487.304 666.063, 487.934 666.750 C 489.171 668.101, 521.042 668.382, 532.345 667.141 L 538.191 666.500 543.845 655.586 L 549.500 644.672 560.307 641.445 C 566.251 639.670, 575.701 635.899, 581.307 633.066 L 591.500 627.914 602.433 631.397 L 613.367 634.880 621.933 626.719 C 640.733 608.807, 649.999 599.489, 649.974 598.519 C 649.960 597.958, 647.743 592.567, 645.047 586.537 C 642.351 580.507, 640.273 575.332, 640.428 575.037 C 646.106 564.262, 653.726 544.876, 655.401 536.944 C 655.833 534.898, 657.431 533.733, 663.395 531.112 C 667.495 529.310, 671.028 527.310, 671.247 526.668 C 671.467 526.026, 671.449 513.536, 671.208 498.912 L 670.770 472.325 663.432 468.694 C 656.749 465.387, 655.999 464.708, 655.025 461.093 C 652.489 451.674, 649.740 444.222, 645.391 434.976 L 640.745 425.100 645.373 414.733 C 647.918 409.031, 650 403.716, 650 402.923 C 650 402.129, 641.788 393.294, 631.750 383.289 L 613.500 365.099 603.364 368.111 L 593.229 371.122 588.272 368.072 C 581.137 363.682, 565.690 356.534, 557.157 353.675 C 553.118 352.321, 549.445 350.828, 548.993 350.357 C 548.542 349.886, 545.906 345.225, 543.136 340 L 538.098 330.500 512.572 330.233 L 487.046 329.966 483.777 336.233 M 500.635 389.075 C 475.677 392.496, 453.136 403.771, 436.395 421.209 C 426.931 431.066, 421.953 438.145, 415.638 450.723 C 385.528 510.693, 417.838 584.777, 482.216 603.383 C 511.243 611.772, 541.666 607.836, 568.390 592.235 C 579.516 585.739, 596.517 568.714, 603.932 556.642 C 615.116 538.435, 619.965 521.285, 619.987 499.860 C 620.007 480.478, 616.906 466.889, 608.724 450.500 C 598.924 430.870, 582.728 413.397, 564.346 402.624 C 545.956 391.845, 520.274 386.384, 500.635 389.075 M 233.289 394.750 C 231.645 397.913, 229.040 403.538, 227.500 407.250 C 224.338 414.873, 223.936 415.039, 215.788 412.080 C 212.879 411.024, 205.372 408.299, 199.105 406.025 C 192.838 403.751, 187.364 402.252, 186.941 402.695 C 185.888 403.797, 182.413 414.555, 179.413 426 C 165.972 477.280, 167.417 529.818, 183.716 582.357 C 185.739 588.878, 187.891 594.405, 188.499 594.638 C 189.106 594.871, 196.555 592.399, 205.052 589.144 C 226.216 581.038, 224.800 581.338, 226.061 584.683 C 228.314 590.660, 235.184 605.869, 236.351 607.465 C 237.459 608.981, 239.464 608.231, 257.288 599.640 C 268.130 594.414, 277 589.642, 277 589.037 C 277 588.431, 275.681 584.462, 274.068 580.218 C 270.925 571.946, 267.179 559.808, 264.278 548.500 L 262.482 541.500 235.283 541.234 L 208.085 540.968 207.541 537.734 C 205.907 528.001, 205.014 521.139, 205.008 518.250 L 205 515 244.883 515 L 284.767 515 285.370 517.250 C 285.701 518.487, 285.982 520.850, 285.994 522.500 C 286.055 530.976, 295.901 567.747, 299.385 572.512 C 300.424 573.933, 302.373 573.247, 316.529 566.472 C 325.313 562.268, 332.686 558.643, 332.913 558.418 C 333.141 558.192, 331.913 552.943, 330.185 546.753 C 325.260 529.113, 324 519.681, 324 500.468 C 324 481.211, 325.986 466.478, 330.515 452.142 C 333.037 444.158, 333.069 443.770, 331.321 442.468 C 328.784 440.578, 302.164 427, 300.995 427 C 297.608 427, 288.125 457.706, 285.553 477 L 284.953 481.500 245.226 481.151 C 223.377 480.960, 205.360 480.669, 205.188 480.506 C 204.805 480.142, 206.914 460.357, 207.666 457.266 L 208.209 455.032 235.310 454.766 L 262.411 454.500 263.685 448.203 C 265.253 440.452, 269.793 425.821, 273.497 416.585 C 276.186 409.876, 276.213 409.629, 274.385 408.292 C 271.785 406.391, 238.214 389, 237.144 389 C 236.668 389, 234.933 391.587, 233.289 394.750 M 767.505 398.827 C 757.058 404.197, 748.381 409.259, 748.224 410.077 C 748.066 410.894, 749.796 416.499, 752.066 422.531 C 754.337 428.564, 757.432 438.225, 758.942 444 L 761.689 454.500 787.595 454.726 C 801.843 454.851, 813.997 454.963, 814.605 454.976 C 815.693 455, 817.968 468.304, 818.322 476.714 L 818.500 480.928 796.886 481.260 C 768.379 481.697, 770 480.691, 770 497.950 C 770 515.924, 768.530 515, 797.135 515 C 817.295 515, 818.999 515.136, 818.992 516.750 C 818.979 519.462, 817.067 536.229, 816.483 538.750 L 815.962 541 788.726 541 L 761.489 541 758.146 554.250 C 756.308 561.538, 753.303 571.550, 751.469 576.500 C 745.565 592.436, 743.811 589.608, 766.360 600.520 C 777.134 605.734, 786.132 610, 786.357 610 C 786.582 610, 789.406 603.889, 792.633 596.421 L 798.500 582.842 801.739 583.356 C 803.521 583.639, 810.950 586.136, 818.248 588.904 C 836.859 595.964, 835.873 596.056, 838.702 587 C 856.010 531.589, 858.126 483.113, 845.532 430.500 C 843.323 421.271, 837.663 403.330, 836.637 402.304 C 836.394 402.061, 833.114 402.981, 829.348 404.347 C 805.290 413.074, 799.705 415.028, 799.539 414.779 C 799.436 414.626, 798.324 412.025, 797.069 409 C 793.887 401.336, 787.688 388.994, 787.039 389.032 C 786.743 389.049, 777.952 393.457, 767.505 398.827 M 708.369 433.899 C 688.801 443.634, 690.271 441.610, 693.897 453.817 C 698.797 470.309, 700.308 483.551, 699.738 504.998 C 699.227 524.257, 697.924 533.276, 693.337 549.324 C 691.950 554.177, 690.969 558.299, 691.157 558.484 C 692.890 560.185, 723.531 573.869, 724.172 573.228 C 725.678 571.722, 731.731 552.736, 733.975 542.483 C 740.661 511.926, 740.506 481.197, 733.525 453.399 C 730.384 440.895, 725.095 427, 723.475 427 C 722.794 427, 715.996 430.105, 708.369 433.899 M 322.500 599.873 C 289.807 615.146, 285.519 617.211, 252.500 633.586 C 235.450 642.042, 220.404 649.822, 219.063 650.875 L 216.627 652.790 221.172 662.145 C 226.021 672.125, 239.827 693.461, 249.758 706.323 C 259.078 718.392, 276.491 737.384, 287 746.941 C 329.228 785.344, 384.778 813.812, 442 826.374 C 468.884 832.276, 484.712 834, 512 834 C 533.354 834, 545.975 833.022, 564 829.972 C 639.459 817.200, 708.287 779.966, 758.856 724.560 C 777.117 704.552, 800.423 670.510, 805.874 655.883 C 806.723 653.605, 806.482 652.993, 804.018 651.171 C 800.506 648.575, 776.020 635.635, 775.565 636.135 C 775.383 636.336, 771.161 643.320, 766.184 651.655 C 750.509 677.902, 737.463 694.502, 716.637 714.697 C 689.112 741.389, 659.792 760.700, 625.467 774.745 C 609.735 781.182, 604.085 782.756, 603.002 781.004 C 602.133 779.597, 594.512 752.956, 592.468 744.175 C 591.551 740.237, 591.524 738.753, 592.364 738.477 C 605.947 734.026, 611.932 731.611, 624.500 725.514 C 661.773 707.430, 690.451 681.948, 715.675 644.500 C 721.936 635.203, 730 620.440, 730 618.272 C 730 616.808, 727.177 614.797, 718.750 610.257 C 701.759 601.103, 681.210 591, 679.582 591 C 678.787 591, 677.119 592.462, 675.876 594.250 C 674.632 596.038, 669.427 603.185, 664.308 610.134 C 659.188 617.083, 655 623.484, 655 624.358 C 655 625.233, 657.700 629.086, 661 632.920 C 664.300 636.754, 667 640.311, 667 640.824 C 667 642.531, 653.946 655.886, 644.661 663.679 C 620.666 683.817, 594.290 696.322, 558.750 704.412 L 556 705.038 556 751.431 L 556 797.824 552.250 798.457 C 547.904 799.189, 529.639 800.784, 529.211 800.468 C 529.052 800.351, 528.695 783.210, 528.419 762.377 L 527.916 724.500 525.602 722.167 C 523.437 719.983, 522.561 719.839, 511.952 719.923 C 501.768 720.004, 500.381 720.233, 498.308 722.181 L 496 724.349 496 762.649 L 496 800.950 493.250 800.522 C 491.738 800.286, 486.675 799.828, 482 799.503 C 477.325 799.178, 472.492 798.659, 471.260 798.350 L 469.020 797.788 468.760 751.208 L 468.500 704.628 461 702.952 C 426.054 695.140, 393.943 677.819, 369.319 653.497 C 362.544 646.804, 357 640.765, 357 640.076 C 357 639.386, 359.929 635.613, 363.510 631.690 C 367.090 627.767, 369.902 624.232, 369.760 623.834 C 369.142 622.112, 344.894 590.003, 344.232 590.031 C 343.830 590.049, 334.050 594.477, 322.500 599.873 M 299 656.546 C 292.675 659.498, 283.900 663.589, 279.500 665.636 C 275.100 667.683, 271.333 669.482, 271.129 669.634 C 269.420 670.902, 288.581 695.935, 300.788 708.384 C 332.787 741.015, 368.104 763.585, 411.462 779.112 C 421.149 782.581, 421.628 782.609, 422.281 779.750 C 422.563 778.513, 425.118 769.234, 427.958 759.131 C 430.799 749.028, 432.921 740.253, 432.674 739.631 C 432.427 739.009, 429.362 737.429, 425.862 736.120 C 391.127 723.128, 362.944 705.672, 341.346 683.775 C 328.248 670.494, 324.952 666.821, 317.543 657.250 C 314.882 653.813, 312.209 651.040, 311.602 651.089 C 310.996 651.138, 305.325 653.593, 299 656.546" stroke="none" fill="#1c242c" fill-rule="evenodd"/><path d="M 0 512.001 L 0 1024.002 512.250 1023.751 L 1024.500 1023.500 1024.751 511.750 L 1025.002 0 512.501 0 L 0 0 0 512.001 M 0.496 512.500 C 0.496 794.100, 0.610 909.151, 0.750 768.168 C 0.890 627.186, 0.890 396.786, 0.750 256.168 C 0.610 115.551, 0.496 230.900, 0.496 512.500 M 480.237 167.579 C 423.895 174.403, 373.239 192.618, 327.289 222.575 C 288.574 247.815, 260.558 275.778, 234.904 314.785 C 224.865 330.048, 216.593 345.496, 217.371 347.524 C 217.664 348.289, 219.613 349.990, 221.702 351.304 C 227.807 355.146, 247.987 366, 249.024 366 C 249.546 366, 250.667 364.340, 251.514 362.311 C 254.012 356.334, 265.917 335.255, 272.588 325 C 296.614 288.062, 311.954 275.377, 336.802 271.901 C 342.037 271.168, 346.284 271.209, 351.802 272.045 C 371.266 274.993, 387.012 285.720, 405.237 308.446 C 409.671 313.976, 413.648 318.639, 414.075 318.808 C 414.502 318.978, 416.635 318.207, 418.815 317.094 C 429.841 311.469, 460.548 301, 466.021 301 C 467.109 301, 468.022 300.438, 468.050 299.750 C 468.077 299.063, 468.189 277.125, 468.300 251 L 468.500 203.500 477 202.325 C 481.675 201.679, 487.848 201.117, 490.717 201.075 L 495.934 201 496.217 240.465 C 496.535 284.875, 496.146 282.749, 504.184 283.933 C 506.558 284.282, 511.975 284.328, 516.223 284.034 C 522.409 283.606, 524.384 283.061, 526.153 281.292 L 528.361 279.084 528.145 240.042 L 527.930 201 533.215 201.075 C 536.122 201.117, 542.325 201.679, 547 202.325 L 555.500 203.500 555.760 251.733 L 556.019 299.967 558.260 300.476 C 559.492 300.756, 562.639 301.441, 565.254 301.998 C 578.691 304.860, 602.825 314.144, 616.547 321.729 C 632.306 330.440, 648.506 342.481, 660.308 354.255 L 667.116 361.047 661.058 367.760 C 657.726 371.452, 655 375.088, 655 375.841 C 655 376.594, 656.273 379.075, 657.829 381.355 C 672.846 403.356, 678.215 411.015, 678.931 411.457 C 679.685 411.923, 697.586 403.310, 774.500 365.477 C 799.216 353.319, 807 348.822, 807 346.702 C 807 344.705, 793.752 321.951, 785.921 310.500 C 736.395 238.072, 658.809 188.241, 568.863 171.091 C 542.884 166.138, 504.644 164.622, 480.237 167.579 M 402.500 224.906 C 395.350 227.578, 387.532 230.670, 385.127 231.777 L 380.755 233.789 395.127 248.644 C 411.571 265.638, 416.090 269.946, 417.500 269.972 C 418.050 269.982, 421.200 268.894, 424.500 267.554 C 428.390 265.975, 430.591 264.482, 430.759 263.309 C 430.901 262.314, 428.616 252.275, 425.681 241 C 420.657 221.704, 420.201 220.487, 417.922 220.274 C 416.590 220.150, 409.650 222.234, 402.500 224.906 M 604 220.471 C 604 220.868, 601.525 230.596, 598.500 242.089 C 595.475 253.582, 593 263.602, 593 264.355 C 593 265.167, 597.377 267.449, 603.750 269.959 C 616.022 274.793, 638.120 286.040, 648.357 292.663 C 667.453 305.016, 692.558 327.110, 705.270 342.750 C 708.063 346.188, 710.693 349, 711.114 349 C 712.036 349, 750.130 329.081, 751.373 327.949 C 753.343 326.155, 735.142 304.203, 717.961 287.651 C 690.861 261.543, 655.405 238.694, 621.300 225.358 C 609.707 220.826, 604 219.213, 604 220.471 M 329.500 308.866 C 320.435 312.994, 314.097 324.725, 315.325 335.099 C 317.675 354.942, 340.726 363.742, 356.435 350.793 C 364.433 344.200, 367.430 330.651, 362.942 321.379 C 360.563 316.466, 354.275 310.431, 349.422 308.403 C 344.655 306.411, 334.364 306.650, 329.500 308.866 M 483.777 336.233 C 481.978 339.680, 479.552 344.563, 478.384 347.084 C 476.492 351.167, 475.728 351.815, 471.380 353.019 C 463.617 355.169, 449.136 361.310, 441.160 365.836 C 437.124 368.126, 432.562 370, 431.024 370 C 429.485 370, 424.463 368.899, 419.863 367.554 L 411.500 365.108 393.686 382.804 C 383.888 392.537, 375.444 401.270, 374.922 402.210 C 374.208 403.496, 375.263 406.515, 379.175 414.380 L 384.377 424.841 379.787 434.670 C 375.638 443.557, 371.018 456.430, 369.616 463.013 C 369.191 465.011, 367.432 466.275, 361.040 469.179 L 353 472.831 353 488.259 C 353 496.744, 353.293 509.135, 353.651 515.794 L 354.302 527.902 361.663 531.137 C 368.584 534.179, 369.084 534.614, 370.046 538.436 C 371.993 546.174, 376.208 557.542, 380.674 567.098 L 385.159 576.696 380.079 586.747 C 377.286 592.275, 375 597.411, 375 598.160 C 375 598.908, 383.092 607.603, 392.981 617.481 L 410.963 635.442 421.896 631.714 L 432.830 627.987 442.665 632.581 C 448.074 635.108, 457.675 638.906, 464 641.020 L 475.500 644.865 481.145 655.182 C 484.249 660.857, 487.304 666.063, 487.934 666.750 C 489.171 668.101, 521.042 668.382, 532.345 667.141 L 538.191 666.500 543.845 655.586 L 549.500 644.672 560.307 641.445 C 566.251 639.670, 575.701 635.899, 581.307 633.066 L 591.500 627.914 602.433 631.397 L 613.367 634.880 621.933 626.719 C 640.733 608.807, 649.999 599.489, 649.974 598.519 C 649.960 597.958, 647.743 592.567, 645.047 586.537 C 642.351 580.507, 640.273 575.332, 640.428 575.037 C 646.106 564.262, 653.726 544.876, 655.401 536.944 C 655.833 534.898, 657.431 533.733, 663.395 531.112 C 667.495 529.310, 671.028 527.310, 671.247 526.668 C 671.467 526.026, 671.449 513.536, 671.208 498.912 L 670.770 472.325 663.432 468.694 C 656.749 465.387, 655.999 464.708, 655.025 461.093 C 652.489 451.674, 649.740 444.222, 645.391 434.976 L 640.745 425.100 645.373 414.733 C 647.918 409.031, 650 403.716, 650 402.923 C 650 402.129, 641.788 393.294, 631.750 383.289 L 613.500 365.099 603.364 368.111 L 593.229 371.122 588.272 368.072 C 581.137 363.682, 565.690 356.534, 557.157 353.675 C 553.118 352.321, 549.445 350.828, 548.993 350.357 C 548.542 349.886, 545.906 345.225, 543.136 340 L 538.098 330.500 512.572 330.233 L 487.046 329.966 483.777 336.233 M 500.635 389.075 C 475.677 392.496, 453.136 403.771, 436.395 421.209 C 426.931 431.066, 421.953 438.145, 415.638 450.723 C 385.528 510.693, 417.838 584.777, 482.216 603.383 C 511.243 611.772, 541.666 607.836, 568.390 592.235 C 579.516 585.739, 596.517 568.714, 603.932 556.642 C 615.116 538.435, 619.965 521.285, 619.987 499.860 C 620.007 480.478, 616.906 466.889, 608.724 450.500 C 598.924 430.870, 582.728 413.397, 564.346 402.624 C 545.956 391.845, 520.274 386.384, 500.635 389.075 M 233.289 394.750 C 231.645 397.913, 229.040 403.538, 227.500 407.250 C 224.338 414.873, 223.936 415.039, 215.788 412.080 C 212.879 411.024, 205.372 408.299, 199.105 406.025 C 192.838 403.751, 187.364 402.252, 186.941 402.695 C 185.888 403.797, 182.413 414.555, 179.413 426 C 165.972 477.280, 167.417 529.818, 183.716 582.357 C 185.739 588.878, 187.891 594.405, 188.499 594.638 C 189.106 594.871, 196.555 592.399, 205.052 589.144 C 226.216 581.038, 224.800 581.338, 226.061 584.683 C 228.314 590.660, 235.184 605.869, 236.351 607.465 C 237.459 608.981, 239.464 608.231, 257.288 599.640 C 268.130 594.414, 277 589.642, 277 589.037 C 277 588.431, 275.681 584.462, 274.068 580.218 C 270.925 571.946, 267.179 559.808, 264.278 548.500 L 262.482 541.500 235.283 541.234 L 208.085 540.968 207.541 537.734 C 205.907 528.001, 205.014 521.139, 205.008 518.250 L 205 515 244.883 515 L 284.767 515 285.370 517.250 C 285.701 518.487, 285.982 520.850, 285.994 522.500 C 286.055 530.976, 295.901 567.747, 299.385 572.512 C 300.424 573.933, 302.373 573.247, 316.529 566.472 C 325.313 562.268, 332.686 558.643, 332.913 558.418 C 333.141 558.192, 331.913 552.943, 330.185 546.753 C 325.260 529.113, 324 519.681, 324 500.468 C 324 481.211, 325.986 466.478, 330.515 452.142 C 333.037 444.158, 333.069 443.770, 331.321 442.468 C 328.784 440.578, 302.164 427, 300.995 427 C 297.608 427, 288.125 457.706, 285.553 477 L 284.953 481.500 245.226 481.151 C 223.377 480.960, 205.360 480.669, 205.188 480.506 C 204.805 480.142, 206.914 460.357, 207.666 457.266 L 208.209 455.032 235.310 454.766 L 262.411 454.500 263.685 448.203 C 265.253 440.452, 269.793 425.821, 273.497 416.585 C 276.186 409.876, 276.213 409.629, 274.385 408.292 C 271.785 406.391, 238.214 389, 237.144 389 C 236.668 389, 234.933 391.587, 233.289 394.750 M 767.505 398.827 C 757.058 404.197, 748.381 409.259, 748.224 410.077 C 748.066 410.894, 749.796 416.499, 752.066 422.531 C 754.337 428.564, 757.432 438.225, 758.942 444 L 761.689 454.500 787.595 454.726 C 801.843 454.851, 813.997 454.963, 814.605 454.976 C 815.693 455, 817.968 468.304, 818.322 476.714 L 818.500 480.928 796.886 481.260 C 768.379 481.697, 770 480.691, 770 497.950 C 770 515.924, 768.530 515, 797.135 515 C 817.295 515, 818.999 515.136, 818.992 516.750 C 818.979 519.462, 817.067 536.229, 816.483 538.750 L 815.962 541 788.726 541 L 761.489 541 758.146 554.250 C 756.308 561.538, 753.303 571.550, 751.469 576.500 C 745.565 592.436, 743.811 589.608, 766.360 600.520 C 777.134 605.734, 786.132 610, 786.357 610 C 786.582 610, 789.406 603.889, 792.633 596.421 L 798.500 582.842 801.739 583.356 C 803.521 583.639, 810.950 586.136, 818.248 588.904 C 836.859 595.964, 835.873 596.056, 838.702 587 C 856.010 531.589, 858.126 483.113, 845.532 430.500 C 843.323 421.271, 837.663 403.330, 836.637 402.304 C 836.394 402.061, 833.114 402.981, 829.348 404.347 C 805.290 413.074, 799.705 415.028, 799.539 414.779 C 799.436 414.626, 798.324 412.025, 797.069 409 C 793.887 401.336, 787.688 388.994, 787.039 389.032 C 786.743 389.049, 777.952 393.457, 767.505 398.827 M 708.369 433.899 C 688.801 443.634, 690.271 441.610, 693.897 453.817 C 698.797 470.309, 700.308 483.551, 699.738 504.998 C 699.227 524.257, 697.924 533.276, 693.337 549.324 C 691.950 554.177, 690.969 558.299, 691.157 558.484 C 692.890 560.185, 723.531 573.869, 724.172 573.228 C 725.678 571.722, 731.731 552.736, 733.975 542.483 C 740.661 511.926, 740.506 481.197, 733.525 453.399 C 730.384 440.895, 725.095 427, 723.475 427 C 722.794 427, 715.996 430.105, 708.369 433.899 M 322.500 599.873 C 289.807 615.146, 285.519 617.211, 252.500 633.586 C 235.450 642.042, 220.404 649.822, 219.063 650.875 L 216.627 652.790 221.172 662.145 C 226.021 672.125, 239.827 693.461, 249.758 706.323 C 259.078 718.392, 276.491 737.384, 287 746.941 C 329.228 785.344, 384.778 813.812, 442 826.374 C 468.884 832.276, 484.712 834, 512 834 C 533.354 834, 545.975 833.022, 564 829.972 C 639.459 817.200, 708.287 779.966, 758.856 724.560 C 777.117 704.552, 800.423 670.510, 805.874 655.883 C 806.723 653.605, 806.482 652.993, 804.018 651.171 C 800.506 648.575, 776.020 635.635, 775.565 636.135 C 775.383 636.336, 771.161 643.320, 766.184 651.655 C 750.509 677.902, 737.463 694.502, 716.637 714.697 C 689.112 741.389, 659.792 760.700, 625.467 774.745 C 609.735 781.182, 604.085 782.756, 603.002 781.004 C 602.133 779.597, 594.512 752.956, 592.468 744.175 C 591.551 740.237, 591.524 738.753, 592.364 738.477 C 605.947 734.026, 611.932 731.611, 624.500 725.514 C 661.773 707.430, 690.451 681.948, 715.675 644.500 C 721.936 635.203, 730 620.440, 730 618.272 C 730 616.808, 727.177 614.797, 718.750 610.257 C 701.759 601.103, 681.210 591, 679.582 591 C 678.787 591, 677.119 592.462, 675.876 594.250 C 674.632 596.038, 669.427 603.185, 664.308 610.134 C 659.188 617.083, 655 623.484, 655 624.358 C 655 625.233, 657.700 629.086, 661 632.920 C 664.300 636.754, 667 640.311, 667 640.824 C 667 642.531, 653.946 655.886, 644.661 663.679 C 620.666 683.817, 594.290 696.322, 558.750 704.412 L 556 705.038 556 751.431 L 556 797.824 552.250 798.457 C 547.904 799.189, 529.639 800.784, 529.211 800.468 C 529.052 800.351, 528.695 783.210, 528.419 762.377 L 527.916 724.500 525.602 722.167 C 523.437 719.983, 522.561 719.839, 511.952 719.923 C 501.768 720.004, 500.381 720.233, 498.308 722.181 L 496 724.349 496 762.649 L 496 800.950 493.250 800.522 C 491.738 800.286, 486.675 799.828, 482 799.503 C 477.325 799.178, 472.492 798.659, 471.260 798.350 L 469.020 797.788 468.760 751.208 L 468.500 704.628 461 702.952 C 426.054 695.140, 393.943 677.819, 369.319 653.497 C 362.544 646.804, 357 640.765, 357 640.076 C 357 639.386, 359.929 635.613, 363.510 631.690 C 367.090 627.767, 369.902 624.232, 369.760 623.834 C 369.142 622.112, 344.894 590.003, 344.232 590.031 C 343.830 590.049, 334.050 594.477, 322.500 599.873 M 299 656.546 C 292.675 659.498, 283.900 663.589, 279.500 665.636 C 275.100 667.683, 271.333 669.482, 271.129 669.634 C 269.420 670.902, 288.581 695.935, 300.788 708.384 C 332.787 741.015, 368.104 763.585, 411.462 779.112 C 421.149 782.581, 421.628 782.609, 422.281 779.750 C 422.563 778.513, 425.118 769.234, 427.958 759.131 C 430.799 749.028, 432.921 740.253, 432.674 739.631 C 432.427 739.009, 429.362 737.429, 425.862 736.120 C 391.127 723.128, 362.944 705.672, 341.346 683.775 C 328.248 670.494, 324.952 666.821, 317.543 657.250 C 314.882 653.813, 312.209 651.040, 311.602 651.089 C 310.996 651.138, 305.325 653.593, 299 656.546" stroke="none" fill="#f1f2f3" fill-rule="evenodd"/></svg>